<svg xmlns="http://www.w3.org/2000/svg" xmlns:xlink="http://www.w3.org/1999/xlink" width="528" height="358" viewBox="0 0 528 358">
  <defs>
    <clipPath id="clip-path">
      <rect id="Rectangle_229" data-name="Rectangle 229" width="528" height="358" transform="translate(1392 1843)" fill="#fff" stroke="#707070" stroke-width="1"/>
    </clipPath>
    <clipPath id="clip-path-2">
      <rect id="Rectangle_108" data-name="Rectangle 108" width="760.958" height="575.55" fill="none"/>
    </clipPath>
  </defs>
  <g id="Mask_Group_22" data-name="Mask Group 22" transform="translate(-1392 -1843)" clip-path="url(#clip-path)">
    <g id="Group_143" data-name="Group 143" transform="translate(2308.581 2059.786) rotate(141)">
      <g id="Group_142" data-name="Group 142" clip-path="url(#clip-path-2)">
        <path id="Path_44" data-name="Path 44" d="M752.806,505.509S519.614,638.981,355.8,497.839C199.115,362.844,344.72,131.175,439.838,217.854c99.09,90.3-147.28,214.782-302.23,167.224S-16.084,118.35,56.3,5.374" transform="translate(2.46 1.469)" fill="none" stroke="#fcaf17" stroke-width="18"/>
        <path id="Path_45" data-name="Path 45" d="M744.245,484.453S516.525,611.5,363.084,479.3c-146.756-126.444-3.888-305.45,59.6-247.975,69.9,63.282-137.425,177-282.559,132.449S4.7,96.671,77.582,5.625" transform="translate(7.073 1.538)" fill="none" stroke="#9581bc" stroke-width="18"/>
      </g>
    </g>
  </g>
</svg>
