<svg xmlns="http://www.w3.org/2000/svg" width="93.503" height="88.303" viewBox="0 0 93.503 88.303">
  <g id="Group_138" data-name="Group 138" transform="matrix(0.391, 0.921, -0.921, 0.391, 15.785, 270.172)">
    <g id="Group_102" data-name="Group 102" transform="translate(-222.935 -157.597)">
      <path id="Path_13" data-name="Path 13" d="M16.052,0,14.8,11.118,1.229,20.932,0,18.493,6.457,8.9,7.3,1.34" transform="translate(41.058 58.236) rotate(-93)" fill="none" stroke="#faa41a" stroke-width="6"/>
      <path id="Path_14" data-name="Path 14" d="M25.644,5.609,15.963,0,0,5.075,1.229,7.514l11.549.513,6.583,3.819" transform="translate(14.318 80.477) rotate(-93)" fill="none" stroke="#faa41a" stroke-width="6"/>
      <path id="Path_15" data-name="Path 15" d="M3.352,32.9,6.7,39.555a59.675,59.675,0,0,0,26.828-6.2A89.048,89.048,0,0,0,55.978,17.1L62.45,3.206l-.073-.145L47.359,0A89.041,89.041,0,0,0,20.945,8.379,59.674,59.674,0,0,0,0,26.255L3.352,32.9" transform="translate(3.268 64.435) rotate(-93)" fill="none" stroke="#b971af" stroke-width="6"/>
      <line id="Line_17" data-name="Line 17" x1="10.537" y1="20.904" transform="translate(19.894 53.822) rotate(-93)" fill="none" stroke="#b971af" stroke-width="6"/>
    </g>
  </g>
</svg>
