<svg xmlns="http://www.w3.org/2000/svg" xmlns:xlink="http://www.w3.org/1999/xlink" width="129.22" height="151.227" viewBox="0 0 129.22 151.227">
  <defs>
    <linearGradient id="linear-gradient" x1="0.202" y1="0.35" x2="1.199" y2="1.082" gradientUnits="objectBoundingBox">
      <stop offset="0" stop-color="#6ac7f4"/>
      <stop offset="1" stop-color="#ffcb18"/>
    </linearGradient>
  </defs>
  <g id="Group_309" data-name="Group 309" transform="translate(-436.196 -145.828)">
    <path id="Path_116" data-name="Path 116" d="M545.8,297.055H483.963A47.819,47.819,0,0,1,436.2,249.288V208.726a44.4,44.4,0,0,1,44.348-44.348h.35a44.4,44.4,0,0,1,44.348,44.348v41.1l10.127,13.8a7.3,7.3,0,0,1-5.887,11.624H481.423a22.74,22.74,0,0,1-22.716-22.712V206.821a22.714,22.714,0,0,1,45.428,0v47.125a2.547,2.547,0,0,1-2.546,2.546H478.137a2.547,2.547,0,0,1-2.546-2.546V208.454a2.546,2.546,0,0,1,5.092,0V251.4h18.36V206.821a17.621,17.621,0,0,0-35.243,0v45.719a17.642,17.642,0,0,0,17.623,17.62h48.059a2.21,2.21,0,0,0,1.782-3.52l-10.623-14.473a2.54,2.54,0,0,1-.492-1.5V208.726a39.3,39.3,0,0,0-39.256-39.255h-.35a39.3,39.3,0,0,0-39.256,39.255v40.563a42.721,42.721,0,0,0,42.674,42.674H545.8a14.479,14.479,0,0,0,12.256-22.186l-15.009-23.853a2.549,2.549,0,0,1-.39-1.358V203.749a52.887,52.887,0,0,0-52.825-52.828,2.546,2.546,0,0,1,0-5.092,57.988,57.988,0,0,1,57.918,57.921v40.081l14.615,23.235A19.568,19.568,0,0,1,545.8,297.055Z" transform="translate(0 0)" fill="url(#linear-gradient)"/>
  </g>
</svg>
