<svg xmlns="http://www.w3.org/2000/svg" xmlns:xlink="http://www.w3.org/1999/xlink" width="168.185" height="151.227" viewBox="0 0 168.185 151.227">
  <defs>
    <linearGradient id="linear-gradient" x1="0.154" y1="0.273" x2="4.04" y2="2.821" gradientUnits="objectBoundingBox">
      <stop offset="0" stop-color="#6ac7f4"/>
      <stop offset="1" stop-color="#ffcb18"/>
    </linearGradient>
    <linearGradient id="linear-gradient-2" x1="-0.77" y1="-0.333" x2="3.115" y2="2.215" xlink:href="#linear-gradient"/>
    <linearGradient id="linear-gradient-3" x1="-0.569" y1="-0.074" x2="1.288" y2="0.854" xlink:href="#linear-gradient"/>
    <linearGradient id="linear-gradient-4" x1="0.109" y1="0.233" x2="1.966" y2="1.161" xlink:href="#linear-gradient"/>
  </defs>
  <g id="Group_310" data-name="Group 310" transform="translate(-349.316 -345.201)">
    <g id="Group_209" data-name="Group 209" transform="translate(386.971 345.201)">
      <path id="Path_117" data-name="Path 117" d="M381.317,386.585a20.692,20.692,0,1,1,20.69-20.694A20.715,20.715,0,0,1,381.317,386.585Zm0-36.389a15.7,15.7,0,1,0,15.7,15.7A15.717,15.717,0,0,0,381.317,350.2Z" transform="translate(-360.623 -345.201)" fill="url(#linear-gradient)"/>
    </g>
    <g id="Group_210" data-name="Group 210" transform="translate(441.692 345.201)">
      <path id="Path_118" data-name="Path 118" d="M397.749,386.585a20.692,20.692,0,1,1,20.69-20.694A20.717,20.717,0,0,1,397.749,386.585Zm0-36.389a15.7,15.7,0,1,0,15.7,15.7A15.717,15.717,0,0,0,397.749,350.2Z" transform="translate(-377.055 -345.201)" fill="url(#linear-gradient-2)"/>
    </g>
    <g id="Group_211" data-name="Group 211" transform="translate(430.909 382.759)">
      <path id="Path_119" data-name="Path 119" d="M414.012,470.148H396a2.5,2.5,0,0,1-2.5-2.557c0-.06.067-6.794-4.449-11.386-2.927-2.981-7.213-4.489-12.738-4.489a2.5,2.5,0,0,1,0-5c6.943,0,12.442,2.031,16.345,6.028a21.719,21.719,0,0,1,5.671,12.4h13.184V386.517a2.5,2.5,0,0,1,2.035-2.454c18.562-3.51,31.184-8.209,38.5-11.529a5.8,5.8,0,0,0-4.579-10.657c-11.489,4.5-36.013,12.055-71.156,12.055a2.5,2.5,0,0,1,0-5c34.321,0,58.172-7.336,69.331-11.712a10.882,10.882,0,0,1,8.585.286,10.8,10.8,0,0,1-.117,19.568c-7.293,3.314-19.658,7.942-37.6,11.5V467.65A2.494,2.494,0,0,1,414.012,470.148Z" transform="translate(-373.817 -356.479)" fill="url(#linear-gradient-3)"/>
    </g>
    <g id="Group_212" data-name="Group 212" transform="translate(349.316 382.759)">
      <path id="Path_120" data-name="Path 120" d="M413.725,470.148H395.709a2.5,2.5,0,0,1-2.5-2.5V388.579c-17.943-3.557-30.308-8.186-37.6-11.5a10.8,10.8,0,0,1-.113-19.568,10.881,10.881,0,0,1,8.585-.286c11.159,4.376,35.007,11.712,69.328,11.712a2.5,2.5,0,0,1,0,5c-35.14,0-59.664-7.556-71.153-12.055a5.8,5.8,0,0,0-4.582,10.657c7.32,3.32,19.941,8.019,38.5,11.529a2.5,2.5,0,0,1,2.035,2.454v78.636h13.187a21.732,21.732,0,0,1,5.668-12.4c3.9-4,9.4-6.028,16.345-6.028a2.5,2.5,0,0,1,0,5c-5.525,0-9.811,1.509-12.735,4.486-4.516,4.6-4.449,11.329-4.449,11.4a2.5,2.5,0,0,1-2.5,2.548Z" transform="translate(-349.316 -356.479)" fill="url(#linear-gradient-4)"/>
    </g>
  </g>
</svg>
