<svg xmlns="http://www.w3.org/2000/svg" xmlns:xlink="http://www.w3.org/1999/xlink" width="107.616" height="151.227" viewBox="0 0 107.616 151.227">
  <defs>
    <linearGradient id="linear-gradient" x1="0.127" y1="0.177" x2="1.709" y2="1.597" gradientUnits="objectBoundingBox">
      <stop offset="0" stop-color="#6ac7f4"/>
      <stop offset="1" stop-color="#ffcb18"/>
    </linearGradient>
    <linearGradient id="linear-gradient-2" x1="-0.291" y1="-1.532" x2="3.575" y2="9.899" xlink:href="#linear-gradient"/>
    <linearGradient id="linear-gradient-3" x1="-0.331" y1="0.114" x2="2.047" y2="1.374" xlink:href="#linear-gradient"/>
  </defs>
  <g id="Group_311" data-name="Group 311" transform="translate(-189.138 -466.882)">
    <g id="Group_216" data-name="Group 216" transform="translate(189.137 466.882)">
      <path id="Path_121" data-name="Path 121" d="M227.17,572.044a2.57,2.57,0,0,1-.766-.12,53.291,53.291,0,0,1-21.523-13.177,53.786,53.786,0,1,1,58.788,11.634,2.5,2.5,0,0,1-1.918-4.613,48.812,48.812,0,1,0-33.814,1.4,2.5,2.5,0,0,1-.766,4.876Z" transform="translate(-189.137 -466.882)" fill="url(#linear-gradient)"/>
    </g>
    <g id="Group_217" data-name="Group 217" transform="translate(220.929 499.496)">
      <path id="Path_122" data-name="Path 122" d="M240.219,489.735a2.489,2.489,0,0,1-1.765-.729,25.133,25.133,0,0,0-35.509,0,2.5,2.5,0,1,1-3.531-3.534,30.146,30.146,0,0,1,42.57,0,2.5,2.5,0,0,1-1.765,4.263Z" transform="translate(-198.682 -476.673)" fill="url(#linear-gradient-2)"/>
    </g>
    <g id="Group_218" data-name="Group 218" transform="translate(202.346 499.557)">
      <path id="Path_123" data-name="Path 123" d="M254.872,595.243H209.4a2.5,2.5,0,1,1,0-5h45.468a4.81,4.81,0,0,0,0-9.619H203.315a10.212,10.212,0,1,1,0-20.424h17.9a10,10,0,0,0,9.986-9.986V479.19a2.5,2.5,0,1,1,5,0v71.028A15,15,0,0,1,221.218,565.2h-17.9a5.216,5.216,0,1,0,0,10.432h51.557a9.806,9.806,0,1,1,0,19.611Z" transform="translate(-193.103 -476.692)" fill="url(#linear-gradient-3)"/>
    </g>
  </g>
</svg>
