<svg xmlns="http://www.w3.org/2000/svg" width="29.627" height="29.626" viewBox="0 0 29.627 29.626">
  <g id="Group_158" data-name="Group 158" transform="translate(-285 -5285.873)">
    <path id="Path_30" data-name="Path 30" d="M29.627,14.813A14.813,14.813,0,1,1,14.813,0,14.813,14.813,0,0,1,29.627,14.813" transform="translate(285 5285.873)" fill="#ecb731"/>
    <path id="Path_31" data-name="Path 31" d="M14.724,13.4l.425-2.774H12.487v-1.8a1.388,1.388,0,0,1,1.564-1.5h1.21V4.96a14.8,14.8,0,0,0-2.149-.187A3.387,3.387,0,0,0,9.488,8.507v2.114H7.052V13.4H9.488V19.9h3V13.4Z" transform="translate(288.657 5288.348)" fill="#272525"/>
  </g>
</svg>
